# xmcd
#
# Track frame offsets:
# 182
# 13880
# 25465
# 36210
# 48700
# 58947
# 71012
# 82300
# 91717
# 104530
# 117807
# 130220
# 140947
# 153047
# 163475
#
# Disc length: 2330 seconds
#
#
# Revision: 1
# Processed by: cddbd v1.5.1PL2 Copyright (c) Steve Scherf et al.
# Submitted via: FreeRIP 2.945 
#
DISCID=df09180f
DTITLE=Tito Rodriguez - Tito Rodriguez Hits
DYEAR=1975
DGENRE=Salsa
TTITLE0=Cuando, Cuando, Cuando - Renis/Testa
TTITLE1=No te quedes con las ganas - F. Reyna
TTITLE2=Mantequita - Mêndez Vargas
TTITLE3=Nunca - Cárdenas
TTITLE4=Damela que tu la tienes - P. Castillo
TTITLE5=De enero a enero - T. Rodriguez
TTITLE6=Maricusa - H. Ariza
TTITLE7=Cara De Payaso - Barbosa Reis
TTITLE8=Celoso - T. Rodríguez
TTITLE9=Piensa en mi - A. Lara
TTITLE10=Ponte en vela - V. Martin
TTITLE11=Bello Amanecer - T. Henriquez
TTITLE12=Machacalo - R. Paz
TTITLE13=El Lechero - T. Rodríguez
TTITLE14=Vuela la Paloma - F. Reyna
EXTD=A Música Ibero Americana - Porto Rico II \nTito Rodríguez y su Orquesta
EXTT0=
EXTT1=
EXTT2=
EXTT3=
EXTT4=
EXTT5=
EXTT6=
EXTT7=
EXTT8=
EXTT9=
EXTT10=
EXTT11=
EXTT12=
EXTT13=
EXTT14=
PLAYORDER=
